<svg width="15" height="15" viewBox="0 0 15 15" fill="none" xmlns="http://www.w3.org/2000/svg">
<path d="M11.6468 3.28006C11.9674 2.72443 12.0524 2.07756 11.8868 1.4575C11.7205 0.838751 11.3231 0.320623 10.768 0L7.49989 5.66495L6.11426 8.06751L5.20927 9.63626C4.65553 9.12062 3.91364 8.80501 3.09743 8.80501C1.38688 8.80438 0 10.1913 0 11.9024C0 13.613 1.38688 14.9999 3.09743 14.9999C4.22618 14.9999 5.21375 14.3961 5.75487 13.4942L5.75925 13.4867C5.77487 13.4611 5.78987 13.4349 5.80425 13.4086L7.49992 10.4699L8.88555 8.06735L11.6468 3.28006ZM3.09737 13.6957C2.10862 13.6957 1.30361 12.8914 1.30361 11.902C1.30361 10.9132 2.10798 10.1082 3.09737 10.1082C4.08612 10.1082 4.89113 10.9126 4.89113 11.902C4.89113 12.8913 4.08676 13.6957 3.09737 13.6957Z" fill="white"/>
<path d="M11.9027 8.80452C11.0864 8.80452 10.3439 9.12015 9.79086 9.63577L9.29774 8.78076L7.91211 11.1833L9.19585 13.4083C9.21085 13.4345 9.22523 13.4608 9.24085 13.4864L9.24523 13.4939C9.78647 14.3964 10.774 15.0002 11.9027 15.0002C13.6132 15.0002 15.0001 13.6133 15.0001 11.9027C15.0001 10.1915 13.6132 8.80464 11.9027 8.80464L11.9027 8.80452ZM11.9027 13.6957C10.9139 13.6957 10.1089 12.8913 10.1089 11.902C10.1089 10.9132 10.9133 10.1082 11.9027 10.1082C12.8914 10.1082 13.6965 10.9126 13.6965 11.902C13.6958 12.8913 12.8915 13.6957 11.9027 13.6957Z" fill="white"/>
<path d="M5.70263 7.35375L7.08826 4.95119L4.23194 0C3.67694 0.320624 3.27945 0.838751 3.11319 1.45813C2.94694 2.0775 3.03257 2.72438 3.35319 3.28068L5.70263 7.35375Z" fill="white"/>
</svg>
