<svg width="12" height="15" viewBox="0 0 12 15" fill="none" xmlns="http://www.w3.org/2000/svg">
<path d="M0.898362 8.67659L0.926458 8.71752C0.960661 8.76882 0.996697 8.8189 1.03273 8.87387L5.10773 14.7276C5.22683 14.8986 5.42166 15 5.62993 15C5.8382 15 6.03304 14.8986 6.15213 14.7276L10.2174 8.87825C10.2565 8.82328 10.2938 8.77015 10.3316 8.72189L10.3567 8.68464V8.68403C11.0927 7.54556 11.3926 6.1798 11.202 4.83732C11.0114 3.49484 10.3426 2.26664 9.31897 1.3779C8.29532 0.489228 6.98455 0 5.62925 0C4.27333 0 2.96319 0.489228 1.93952 1.3779C0.915251 2.26658 0.246477 3.49483 0.0558774 4.83732C-0.134691 6.17979 0.165817 7.54543 0.901804 8.68403L0.898362 8.67659ZM5.63006 3.28648C6.25183 3.28648 6.84855 3.53383 7.28823 3.97359C7.72791 4.41335 7.97534 5.01007 7.97534 5.63176C7.97534 6.25415 7.72799 6.85087 7.28823 7.29056C6.84847 7.73026 6.25175 7.97707 5.63006 7.97707C5.00836 7.97707 4.41156 7.73032 3.97188 7.29056C3.53221 6.85081 3.28477 6.25408 3.28477 5.63176C3.28477 5.00999 3.53213 4.41327 3.97188 3.97359C4.41164 3.53391 5.00836 3.28648 5.63006 3.28648Z" fill="white"/>
</svg>
